<svg width="110" height="73" viewBox="0 0 110 73" fill="none" xmlns="http://www.w3.org/2000/svg">
<path d="M12.9375 27.5H14.875V20.3437H23.4063V27.5H25.3438V11.5H23.4063V18.625H14.875V11.5H12.9375V27.5ZM39.5627 27.5H49.3439V25.7812H41.5002V20.3437H48.7189V18.625H41.5002V13.2187H49.2189V11.5H39.5627V27.5ZM63.7073 27.5L65.3167 22.9687H71.7855L73.3948 27.5H75.4261L69.5511 11.5H67.5511L61.6761 27.5H63.7073ZM65.9261 21.25L68.4886 14.0312H68.6136L71.1761 21.25H65.9261ZM85.5141 13.2187H90.5454V27.5H92.4829V13.2187H97.5141V11.5H85.5141V13.2187Z" fill="#19C3FF" fill-opacity="0.8"/>
<path d="M13.152 61.5H17.1044V54.1278H21.2805C26.3196 54.1278 29.0256 51.1023 29.0256 46.9048C29.0256 42.7393 26.3516 39.6818 21.3338 39.6818H13.152V61.5ZM17.1044 50.8786V42.9844H20.7266C23.6882 42.9844 24.9986 44.5824 24.9986 46.9048C24.9986 49.2273 23.6882 50.8786 20.7479 50.8786H17.1044ZM46.2122 39.6818V53.6058C46.2122 56.3438 44.3052 58.304 41.3116 58.304C38.3074 58.304 36.411 56.3438 36.411 53.6058V39.6818H32.4586V53.9361C32.4586 58.6236 35.9743 61.8303 41.3116 61.8303C46.6277 61.8303 50.1646 58.6236 50.1646 53.9361V39.6818H46.2122ZM54.4606 39.6818V61.5H58.2532V46.4787H58.4556L64.4854 61.4361H67.3192L73.3491 46.5107H73.5515V61.5H77.3441V39.6818H72.5075L66.0302 55.4915H65.7745L59.2972 39.6818H54.4606ZM81.6481 61.5H85.6005V54.1278H89.7766C94.8157 54.1278 97.5217 51.1023 97.5217 46.9048C97.5217 42.7393 94.8477 39.6818 89.8299 39.6818H81.6481V61.5ZM85.6005 50.8786V42.9844H89.2227C92.1843 42.9844 93.4947 44.5824 93.4947 46.9048C93.4947 49.2273 92.1843 50.8786 89.244 50.8786H85.6005Z" fill="#19C3FF"/>
<g opacity="0.4">
<rect x="60" y="1.5" width="1.5" height="50" transform="rotate(-90 60 1.5)" fill="#19C3FF"/>
<rect x="110" y="51.5" width="1.5" height="50" transform="rotate(-180 110 51.5)" fill="#19C3FF"/>
<rect x="50" y="71.5" width="1.5" height="50" transform="rotate(90 50 71.5)" fill="#19C3FF"/>
<rect y="21.5" width="1.5" height="50" fill="#19C3FF"/>
</g>
</svg>
